<svg width="284" height="111" viewBox="0 0 284 111" fill="none" xmlns="http://www.w3.org/2000/svg">
<path d="M165.31 37.0013C155.131 37.0013 146.845 45.3032 146.845 55.5014C146.845 65.6995 155.131 74.0014 165.31 74.0014C175.488 74.0014 183.774 65.6995 183.774 55.5014C183.774 45.3032 175.488 37.0013 165.31 37.0013ZM165.31 66.6014C159.193 66.6014 154.231 61.6295 154.231 55.5014C154.231 49.3732 159.193 44.4013 165.31 44.4013C171.426 44.4013 176.389 49.3732 176.389 55.5014C176.389 61.6295 171.426 66.6014 165.31 66.6014ZM90.5296 37.0013C80.3509 37.0013 72.0648 45.3032 72.0648 55.5014C72.0648 65.6995 80.3509 74.0014 90.5296 74.0014C100.708 74.0014 108.994 65.6995 108.994 55.5014C108.994 45.3032 100.708 37.0013 90.5296 37.0013ZM90.5296 66.6014C84.4132 66.6014 79.4507 61.6295 79.4507 55.5014C79.4507 49.3732 84.4132 44.4013 90.5296 44.4013C96.6461 44.4013 101.608 49.3732 101.608 55.5014C101.608 61.6295 96.6461 66.6014 90.5296 66.6014ZM116.38 72.8914H123.766V59.2014H139.969V51.8014H123.766V45.5113H140.385V38.1113H116.38V72.8914ZM251.171 45.5113V38.1113H227.167V72.8914H251.171V65.4914H234.553V59.2014H250.432V51.8014H234.553V45.5113H251.171ZM218.858 50.9689C218.811 43.8926 212.949 38.1113 205.817 38.1113H191.16V72.8914H198.546V64.0114H204.686L210.041 72.8914H218.673L212.303 62.3232C213.318 61.7451 214.264 61.0282 215.095 60.1726C217.542 57.7214 218.881 54.4376 218.858 50.9689ZM209.856 54.9695C208.817 56.0332 207.409 56.6114 205.932 56.6114H198.546V45.5113H205.817C208.91 45.5113 211.449 47.9857 211.472 51.0151C211.472 52.5182 210.918 53.9057 209.856 54.9695ZM59.9242 60.7739H58.8163V63.6414C56.7621 65.5607 54.1078 66.6014 51.2919 66.6014C48.3376 66.6014 45.5448 65.4451 43.4675 63.3407C41.3671 61.2595 40.2131 58.4614 40.2131 55.5014C40.2131 52.5414 41.3671 49.7432 43.4675 47.662C45.5448 45.5576 48.3376 44.4013 51.2919 44.4013C54.2463 44.4013 57.0391 45.5576 59.1164 47.662L64.3327 42.4357C60.8705 38.9207 56.2313 37.0013 51.2919 37.0013C46.3526 37.0013 41.7133 38.9207 38.2281 42.4126C34.7429 45.9045 32.8271 50.5526 32.8271 55.5014C32.8271 60.4501 34.7429 65.0982 38.2281 68.5901C41.7133 72.082 46.3526 74.0014 51.2919 74.0014C56.2313 74.0014 60.8705 72.082 64.3558 68.5901C64.7943 68.1507 65.2098 67.6651 65.6022 67.1795C65.4152 64.9132 64.4712 60.7739 59.9242 60.7739ZM58.9294 51.4776H50.0433V58.8314H59.945C62.7378 58.8314 64.9074 60.0801 66.223 62.3001V59.7564C66.223 57.3745 65.6229 55.432 64.4227 53.9751C63.0863 52.3564 61.1244 51.4776 58.9294 51.4776Z" fill="#F7673B"/>
</svg>
