<svg width="284" height="110" viewBox="0 0 284 110" fill="none" xmlns="http://www.w3.org/2000/svg">
<path d="M165.31 36.668C155.131 36.668 146.845 44.8951 146.845 55.0013C146.845 65.1076 155.131 73.3347 165.31 73.3347C175.488 73.3347 183.774 65.1076 183.774 55.0013C183.774 44.8951 175.488 36.668 165.31 36.668ZM165.31 66.0013C159.193 66.0013 154.231 61.0742 154.231 55.0013C154.231 48.9284 159.193 44.0013 165.31 44.0013C171.426 44.0013 176.389 48.9284 176.389 55.0013C176.389 61.0742 171.426 66.0013 165.31 66.0013ZM90.5296 36.668C80.3509 36.668 72.0648 44.8951 72.0648 55.0013C72.0648 65.1076 80.3509 73.3347 90.5296 73.3347C100.708 73.3347 108.994 65.1076 108.994 55.0013C108.994 44.8951 100.708 36.668 90.5296 36.668ZM90.5296 66.0013C84.4132 66.0013 79.4507 61.0742 79.4507 55.0013C79.4507 48.9284 84.4132 44.0013 90.5296 44.0013C96.6461 44.0013 101.608 48.9284 101.608 55.0013C101.608 61.0742 96.6461 66.0013 90.5296 66.0013ZM116.38 72.2347H123.766V58.668H139.969V51.3346H123.766V45.1013H140.385V37.768H116.38V72.2347ZM251.171 45.1013V37.768H227.167V72.2347H251.171V64.9013H234.553V58.668H250.432V51.3346H234.553V45.1013H251.171ZM218.858 50.5096C218.811 43.4971 212.949 37.768 205.817 37.768H191.16V72.2347H198.546V63.4347H204.686L210.041 72.2347H218.673L212.303 61.7617C213.318 61.1888 214.264 60.4784 215.095 59.6305C217.542 57.2013 218.881 53.9471 218.858 50.5096ZM209.856 54.4742C208.817 55.5284 207.409 56.1013 205.932 56.1013H198.546V45.1013H205.817C208.91 45.1013 211.449 47.5534 211.472 50.5555C211.472 52.0451 210.918 53.4201 209.856 54.4742ZM59.9242 60.2263H58.8163V63.068C56.7621 64.9701 54.1078 66.0013 51.2919 66.0013C48.3376 66.0013 45.5448 64.8555 43.4675 62.7701C41.3671 60.7076 40.2131 57.9346 40.2131 55.0013C40.2131 52.068 41.3671 49.2951 43.4675 47.2326C45.5448 45.1471 48.3376 44.0013 51.2919 44.0013C54.2463 44.0013 57.0391 45.1471 59.1164 47.2326L64.3327 42.0534C60.8705 38.5701 56.2313 36.668 51.2919 36.668C46.3526 36.668 41.7133 38.5701 38.2281 42.0305C34.7429 45.4909 32.8271 50.0971 32.8271 55.0013C32.8271 59.9055 34.7429 64.5117 38.2281 67.9722C41.7133 71.4326 46.3526 73.3347 51.2919 73.3347C56.2313 73.3347 60.8705 71.4326 64.3558 67.9722C64.7943 67.5367 65.2098 67.0555 65.6022 66.5742C65.4152 64.3284 64.4712 60.2263 59.9242 60.2263ZM58.9294 51.0138H50.0433V58.3013H59.945C62.7378 58.3013 64.9074 59.5388 66.223 61.7388V59.218C66.223 56.8576 65.6229 54.9326 64.4227 53.4888C63.0863 51.8846 61.1244 51.0138 58.9294 51.0138Z" fill="white"/>
</svg>
